<svg width="235" height="64" viewBox="0 0 235 64" fill="none" xmlns="http://www.w3.org/2000/svg">
<path d="M74.3438 30.8438V40.1875C73.9583 40.6146 73.3646 41.0729 72.5625 41.5625C71.7708 42.0417 70.7708 42.4531 69.5625 42.7969C68.3542 43.1406 66.9323 43.3125 65.2969 43.3125C63.7865 43.3125 62.4167 43.0729 61.1875 42.5938C59.9583 42.1042 58.901 41.3906 58.0156 40.4531C57.1406 39.5052 56.4635 38.349 55.9844 36.9844C55.5156 35.6094 55.2812 34.0365 55.2812 32.2656V31C55.2812 29.2292 55.5208 27.6562 56 26.2812C56.4792 24.9062 57.151 23.75 58.0156 22.8125C58.8906 21.8646 59.9167 21.1458 61.0938 20.6562C62.2812 20.1667 63.5833 19.9219 65 19.9219C67.0938 19.9219 68.7969 20.2552 70.1094 20.9219C71.4219 21.5781 72.4167 22.4896 73.0938 23.6562C73.7708 24.8125 74.1823 26.151 74.3281 27.6719H69.0625C68.9583 26.9219 68.7604 26.2865 68.4688 25.7656C68.1875 25.2344 67.7812 24.8333 67.25 24.5625C66.7188 24.2812 66.0312 24.1406 65.1875 24.1406C64.5312 24.1406 63.9323 24.2812 63.3906 24.5625C62.8594 24.8438 62.4062 25.2708 62.0312 25.8438C61.6562 26.4062 61.3646 27.1146 61.1562 27.9688C60.9583 28.8229 60.8594 29.8229 60.8594 30.9688V32.2656C60.8594 33.401 60.9531 34.3958 61.1406 35.25C61.3385 36.1042 61.6302 36.8177 62.0156 37.3906C62.4115 37.9531 62.9115 38.3802 63.5156 38.6719C64.1302 38.9531 64.8542 39.0938 65.6875 39.0938C66.2708 39.0938 66.7708 39.0469 67.1875 38.9531C67.6042 38.849 67.9479 38.724 68.2188 38.5781C68.5 38.4219 68.7135 38.276 68.8594 38.1406V34.6094H65.0469V30.8438H74.3438ZM84.4594 26.0938V43H79.1781V26.0938H84.4594ZM78.8656 21.7344C78.8656 20.9844 79.1365 20.3698 79.6781 19.8906C80.2198 19.4115 80.9229 19.1719 81.7875 19.1719C82.6521 19.1719 83.3552 19.4115 83.8969 19.8906C84.4385 20.3698 84.7094 20.9844 84.7094 21.7344C84.7094 22.4844 84.4385 23.099 83.8969 23.5781C83.3552 24.0573 82.6521 24.2969 81.7875 24.2969C80.9229 24.2969 80.2198 24.0573 79.6781 23.5781C79.1365 23.099 78.8656 22.4844 78.8656 21.7344ZM89.3563 19H94.6219V38.8438L94.075 43H89.3563V19ZM104.997 34.3594V34.6875C104.997 35.9688 104.867 37.1354 104.606 38.1875C104.346 39.2396 103.945 40.151 103.403 40.9219C102.861 41.6823 102.179 42.2708 101.356 42.6875C100.533 43.1042 99.5594 43.3125 98.4344 43.3125C97.4135 43.3125 96.5385 43.0938 95.8094 42.6562C95.0802 42.2083 94.4708 41.5938 93.9813 40.8125C93.4917 40.0208 93.0958 39.1094 92.7938 38.0781C92.4917 37.0365 92.2521 35.9219 92.075 34.7344V34.3438C92.2521 33.1667 92.4917 32.0625 92.7938 31.0312C93.0958 29.9896 93.4917 29.0781 93.9813 28.2969C94.4708 27.5052 95.075 26.8906 95.7938 26.4531C96.5229 26.0052 97.3927 25.7812 98.4031 25.7812C99.5385 25.7812 100.518 25.9948 101.341 26.4219C102.174 26.849 102.861 27.4479 103.403 28.2188C103.945 28.9896 104.346 29.8958 104.606 30.9375C104.867 31.9792 104.997 33.1198 104.997 34.3594ZM99.7313 34.6875V34.3594C99.7313 33.7448 99.6948 33.1667 99.6219 32.625C99.549 32.0833 99.4188 31.6042 99.2313 31.1875C99.0438 30.7708 98.7781 30.4427 98.4344 30.2031C98.0906 29.9635 97.6427 29.8438 97.0906 29.8438C96.5281 29.8438 96.0542 29.9375 95.6688 30.125C95.2938 30.3125 94.9917 30.5833 94.7625 30.9375C94.5438 31.2812 94.3875 31.7083 94.2938 32.2188C94.2 32.7188 94.1583 33.2865 94.1688 33.9219V35.1562C94.1479 36.0208 94.226 36.7604 94.4031 37.375C94.5802 37.9896 94.8875 38.4583 95.325 38.7812C95.7625 39.1042 96.3615 39.2656 97.1219 39.2656C97.6844 39.2656 98.1375 39.1562 98.4813 38.9375C98.8354 38.7188 99.101 38.4062 99.2781 38C99.4552 37.5938 99.575 37.1094 99.6375 36.5469C99.7 35.9844 99.7313 35.3646 99.7313 34.6875ZM114.503 26.0938V43H109.222V26.0938H114.503ZM108.909 21.7344C108.909 20.9844 109.18 20.3698 109.722 19.8906C110.264 19.4115 110.967 19.1719 111.831 19.1719C112.696 19.1719 113.399 19.4115 113.941 19.8906C114.482 20.3698 114.753 20.9844 114.753 21.7344C114.753 22.4844 114.482 23.099 113.941 23.5781C113.399 24.0573 112.696 24.2969 111.831 24.2969C110.967 24.2969 110.264 24.0573 109.722 23.5781C109.18 23.099 108.909 22.4844 108.909 21.7344ZM125.806 43H120.509V24.7188C120.509 23.4062 120.775 22.3021 121.306 21.4062C121.838 20.5104 122.588 19.8333 123.556 19.375C124.525 18.9062 125.671 18.6719 126.994 18.6719C127.452 18.6719 127.884 18.7031 128.291 18.7656C128.697 18.8281 129.093 18.9062 129.478 19L129.494 22.875C129.306 22.8229 129.114 22.7865 128.916 22.7656C128.718 22.7448 128.473 22.7344 128.181 22.7344C127.671 22.7344 127.239 22.8125 126.884 22.9688C126.53 23.1146 126.259 23.3385 126.072 23.6406C125.895 23.9323 125.806 24.2917 125.806 24.7188V43ZM129.088 26.0938V29.75H118.072V26.0938H129.088ZM137.766 41.0156L142.141 26.0938H147.797L141 45.5156C140.854 45.9427 140.661 46.401 140.422 46.8906C140.182 47.3906 139.854 47.8646 139.438 48.3125C139.021 48.7604 138.484 49.125 137.828 49.4062C137.182 49.6875 136.38 49.8281 135.422 49.8281C134.911 49.8281 134.536 49.8021 134.297 49.75C134.068 49.7083 133.714 49.6302 133.234 49.5156V45.75C133.37 45.75 133.484 45.75 133.578 45.75C133.682 45.75 133.797 45.75 133.922 45.75C134.484 45.75 134.932 45.6927 135.266 45.5781C135.609 45.4635 135.87 45.2969 136.047 45.0781C136.234 44.8594 136.38 44.5938 136.484 44.2812L137.766 41.0156ZM136.656 26.0938L139.984 37.9219L140.562 43.5H137.031L131.016 26.0938H136.656Z" fill="black"/>
<path d="M151.116 40.5312C151.116 39.7812 151.386 39.1562 151.928 38.6562C152.47 38.1458 153.168 37.8906 154.022 37.8906C154.886 37.8906 155.584 38.1458 156.116 38.6562C156.657 39.1562 156.928 39.7812 156.928 40.5312C156.928 41.2812 156.657 41.9115 156.116 42.4219C155.584 42.9219 154.886 43.1719 154.022 43.1719C153.168 43.1719 152.47 42.9219 151.928 42.4219C151.386 41.9115 151.116 41.2812 151.116 40.5312ZM167.622 19V43H162.341V19H167.622ZM178.034 26.0938V43H172.753V26.0938H178.034ZM172.441 21.7344C172.441 20.9844 172.711 20.3698 173.253 19.8906C173.795 19.4115 174.498 19.1719 175.363 19.1719C176.227 19.1719 176.93 19.4115 177.472 19.8906C178.014 20.3698 178.284 20.9844 178.284 21.7344C178.284 22.4844 178.014 23.099 177.472 23.5781C176.93 24.0573 176.227 24.2969 175.363 24.2969C174.498 24.2969 173.795 24.0573 173.253 23.5781C172.711 23.099 172.441 22.4844 172.441 21.7344ZM188.056 29.7031V43H182.791V26.0938H187.728L188.056 29.7031ZM187.431 33.9688L186.197 34C186.197 32.7083 186.353 31.5573 186.666 30.5469C186.978 29.526 187.421 28.6615 187.994 27.9531C188.567 27.2448 189.249 26.7083 190.041 26.3438C190.843 25.9688 191.733 25.7812 192.713 25.7812C193.494 25.7812 194.207 25.8958 194.853 26.125C195.509 26.3542 196.072 26.724 196.541 27.2344C197.02 27.7448 197.384 28.4219 197.634 29.2656C197.895 30.099 198.025 31.1302 198.025 32.3594V43H192.728V32.3438C192.728 31.6667 192.634 31.151 192.447 30.7969C192.259 30.4323 191.989 30.1823 191.634 30.0469C191.28 29.9115 190.848 29.8438 190.338 29.8438C189.796 29.8438 189.338 29.9479 188.963 30.1562C188.588 30.3646 188.285 30.6562 188.056 31.0312C187.838 31.3958 187.676 31.8281 187.572 32.3281C187.478 32.8281 187.431 33.375 187.431 33.9688ZM207.859 18.9844V43H202.594V18.9844H207.859ZM218.672 26.0938L211.328 34.7031L207.484 38.5469L205.188 35.2031L208.391 31.0312L212.359 26.0938H218.672ZM213.031 43L208.516 35.2969L212.406 32.5312L219.062 43H213.031Z" fill="black"/>
<path d="M45.3869 12.6809C40.479 7.86679 32.5691 7.94253 27.7543 12.8512L22.2953 18.4167C22.2856 18.4266 22.275 18.4374 22.2661 18.4473C17.5087 23.3245 17.5173 31.1907 22.4656 36.0493C22.9893 36.5629 23.5571 37.0295 24.1625 37.4436C24.6912 37.805 25.4012 37.7424 25.8496 37.2853L27.5599 35.5415C28.2382 34.85 28.5367 33.9538 28.4959 33.0873C28.486 32.8826 28.4285 32.6829 28.3278 32.5044C28.2271 32.3258 28.0861 32.1732 27.916 32.0588C27.6756 31.8967 27.3675 31.6642 27.061 31.3641C24.736 29.0836 24.6902 25.346 26.9803 23.0113L32.4393 17.4466C34.7333 15.1079 38.5117 15.0853 40.8332 17.4074C43.1319 19.7068 43.096 23.4507 40.8192 25.7718L39.7561 26.8557C39.4027 27.2159 39.2914 27.7453 39.459 28.2213C39.9536 29.627 40.2284 31.085 40.2956 32.5382C40.3483 33.6785 41.7435 34.2015 42.5428 33.3865L45.5571 30.3134C50.3721 25.4056 50.2957 17.4949 45.3869 12.6809Z"  fill="black"/>
<path d="M33.9381 24.3537C38.8863 29.2123 38.895 37.0785 34.1376 41.9556C34.1287 41.9656 34.1181 41.9763 34.1084 41.9863L28.6493 47.5517C23.8345 52.4604 15.9247 52.5362 11.0167 47.722C6.10801 42.908 6.03161 34.9973 10.8464 30.0894L13.8607 27.0163C14.6601 26.2014 16.0553 26.7244 16.108 27.8647C16.1752 29.3179 16.45 30.7759 16.9446 32.1816C17.1121 32.6576 17.0008 33.187 16.6475 33.5472L15.5843 34.6311C13.3076 36.9522 13.2717 40.6961 15.5704 42.9955C17.8918 45.3176 21.6702 45.295 23.9642 42.9563L29.4233 37.3916C31.7134 35.0569 31.6676 31.3193 29.3426 29.0388C29.0361 28.7387 28.728 28.5062 28.4875 28.3441C28.3174 28.2297 28.1764 28.0771 28.0758 27.8985C27.9751 27.7199 27.9175 27.5203 27.9077 27.3156C27.8669 26.4491 28.1653 25.5529 28.8437 24.8614L30.554 23.1176C31.0025 22.6604 31.7124 22.5979 32.2411 22.9593C32.8465 23.3734 33.4144 23.84 33.9381 24.3537Z" fill="black"/>
</svg>
