<svg width="235" height="64" viewBox="0 0 235 64" fill="none" xmlns="http://www.w3.org/2000/svg">
<g clip-path="url(#clip0_1252_8)">
<path d="M78.3438 30.8438V40.1875C77.9583 40.6146 77.3646 41.0729 76.5625 41.5625C75.7708 42.0417 74.7708 42.4531 73.5625 42.7969C72.3542 43.1406 70.9323 43.3125 69.2969 43.3125C67.7865 43.3125 66.4167 43.0729 65.1875 42.5938C63.9583 42.1042 62.901 41.3906 62.0156 40.4531C61.1406 39.5052 60.4635 38.349 59.9844 36.9844C59.5156 35.6094 59.2812 34.0365 59.2812 32.2656V31C59.2812 29.2292 59.5208 27.6562 60 26.2812C60.4792 24.9062 61.151 23.75 62.0156 22.8125C62.8906 21.8646 63.9167 21.1458 65.0938 20.6562C66.2812 20.1667 67.5833 19.9219 69 19.9219C71.0938 19.9219 72.7969 20.2552 74.1094 20.9219C75.4219 21.5781 76.4167 22.4896 77.0938 23.6562C77.7708 24.8125 78.1823 26.151 78.3281 27.6719H73.0625C72.9583 26.9219 72.7604 26.2865 72.4688 25.7656C72.1875 25.2344 71.7812 24.8333 71.25 24.5625C70.7188 24.2812 70.0312 24.1406 69.1875 24.1406C68.5312 24.1406 67.9323 24.2812 67.3906 24.5625C66.8594 24.8438 66.4062 25.2708 66.0312 25.8438C65.6562 26.4062 65.3646 27.1146 65.1562 27.9688C64.9583 28.8229 64.8594 29.8229 64.8594 30.9688V32.2656C64.8594 33.401 64.9531 34.3958 65.1406 35.25C65.3385 36.1042 65.6302 36.8177 66.0156 37.3906C66.4115 37.9531 66.9115 38.3802 67.5156 38.6719C68.1302 38.9531 68.8542 39.0938 69.6875 39.0938C70.2708 39.0938 70.7708 39.0469 71.1875 38.9531C71.6042 38.849 71.9479 38.724 72.2188 38.5781C72.5 38.4219 72.7135 38.276 72.8594 38.1406V34.6094H69.0469V30.8438H78.3438ZM88.4594 26.0938V43H83.1781V26.0938H88.4594ZM82.8656 21.7344C82.8656 20.9844 83.1365 20.3698 83.6781 19.8906C84.2198 19.4115 84.9229 19.1719 85.7875 19.1719C86.6521 19.1719 87.3552 19.4115 87.8969 19.8906C88.4385 20.3698 88.7094 20.9844 88.7094 21.7344C88.7094 22.4844 88.4385 23.099 87.8969 23.5781C87.3552 24.0573 86.6521 24.2969 85.7875 24.2969C84.9229 24.2969 84.2198 24.0573 83.6781 23.5781C83.1365 23.099 82.8656 22.4844 82.8656 21.7344ZM93.3563 19H98.6219V38.8438L98.075 43H93.3563V19ZM108.997 34.3594V34.6875C108.997 35.9688 108.867 37.1354 108.606 38.1875C108.346 39.2396 107.945 40.151 107.403 40.9219C106.861 41.6823 106.179 42.2708 105.356 42.6875C104.533 43.1042 103.559 43.3125 102.434 43.3125C101.414 43.3125 100.539 43.0938 99.8094 42.6562C99.0802 42.2083 98.4708 41.5938 97.9813 40.8125C97.4917 40.0208 97.0958 39.1094 96.7938 38.0781C96.4917 37.0365 96.2521 35.9219 96.075 34.7344V34.3438C96.2521 33.1667 96.4917 32.0625 96.7938 31.0312C97.0958 29.9896 97.4917 29.0781 97.9813 28.2969C98.4708 27.5052 99.075 26.8906 99.7938 26.4531C100.523 26.0052 101.393 25.7812 102.403 25.7812C103.539 25.7812 104.518 25.9948 105.341 26.4219C106.174 26.849 106.861 27.4479 107.403 28.2188C107.945 28.9896 108.346 29.8958 108.606 30.9375C108.867 31.9792 108.997 33.1198 108.997 34.3594ZM103.731 34.6875V34.3594C103.731 33.7448 103.695 33.1667 103.622 32.625C103.549 32.0833 103.419 31.6042 103.231 31.1875C103.044 30.7708 102.778 30.4427 102.434 30.2031C102.091 29.9635 101.643 29.8438 101.091 29.8438C100.528 29.8438 100.054 29.9375 99.6688 30.125C99.2938 30.3125 98.9917 30.5833 98.7625 30.9375C98.5438 31.2812 98.3875 31.7083 98.2938 32.2188C98.2 32.7188 98.1583 33.2865 98.1688 33.9219V35.1562C98.1479 36.0208 98.226 36.7604 98.4031 37.375C98.5802 37.9896 98.8875 38.4583 99.325 38.7812C99.7625 39.1042 100.361 39.2656 101.122 39.2656C101.684 39.2656 102.138 39.1562 102.481 38.9375C102.835 38.7188 103.101 38.4062 103.278 38C103.455 37.5938 103.575 37.1094 103.638 36.5469C103.7 35.9844 103.731 35.3646 103.731 34.6875ZM118.503 26.0938V43H113.222V26.0938H118.503ZM112.909 21.7344C112.909 20.9844 113.18 20.3698 113.722 19.8906C114.264 19.4115 114.967 19.1719 115.831 19.1719C116.696 19.1719 117.399 19.4115 117.941 19.8906C118.482 20.3698 118.753 20.9844 118.753 21.7344C118.753 22.4844 118.482 23.099 117.941 23.5781C117.399 24.0573 116.696 24.2969 115.831 24.2969C114.967 24.2969 114.264 24.0573 113.722 23.5781C113.18 23.099 112.909 22.4844 112.909 21.7344ZM129.806 43H124.509V24.7188C124.509 23.4062 124.775 22.3021 125.306 21.4062C125.838 20.5104 126.588 19.8333 127.556 19.375C128.525 18.9062 129.671 18.6719 130.994 18.6719C131.452 18.6719 131.884 18.7031 132.291 18.7656C132.697 18.8281 133.093 18.9062 133.478 19L133.494 22.875C133.306 22.8229 133.114 22.7865 132.916 22.7656C132.718 22.7448 132.473 22.7344 132.181 22.7344C131.671 22.7344 131.239 22.8125 130.884 22.9688C130.53 23.1146 130.259 23.3385 130.072 23.6406C129.895 23.9323 129.806 24.2917 129.806 24.7188V43ZM133.088 26.0938V29.75H122.072V26.0938H133.088ZM141.766 41.0156L146.141 26.0938H151.797L145 45.5156C144.854 45.9427 144.661 46.401 144.422 46.8906C144.182 47.3906 143.854 47.8646 143.438 48.3125C143.021 48.7604 142.484 49.125 141.828 49.4062C141.182 49.6875 140.38 49.8281 139.422 49.8281C138.911 49.8281 138.536 49.8021 138.297 49.75C138.068 49.7083 137.714 49.6302 137.234 49.5156V45.75C137.37 45.75 137.484 45.75 137.578 45.75C137.682 45.75 137.797 45.75 137.922 45.75C138.484 45.75 138.932 45.6927 139.266 45.5781C139.609 45.4635 139.87 45.2969 140.047 45.0781C140.234 44.8594 140.38 44.5938 140.484 44.2812L141.766 41.0156ZM140.656 26.0938L143.984 37.9219L144.562 43.5H141.031L135.016 26.0938H140.656Z" fill="black"/>
<path d="M155.116 40.5312C155.116 39.7812 155.386 39.1562 155.928 38.6562C156.47 38.1458 157.168 37.8906 158.022 37.8906C158.886 37.8906 159.584 38.1458 160.116 38.6562C160.657 39.1562 160.928 39.7812 160.928 40.5312C160.928 41.2812 160.657 41.9115 160.116 42.4219C159.584 42.9219 158.886 43.1719 158.022 43.1719C157.168 43.1719 156.47 42.9219 155.928 42.4219C155.386 41.9115 155.116 41.2812 155.116 40.5312ZM171.622 19V43H166.341V19H171.622ZM182.034 26.0938V43H176.753V26.0938H182.034ZM176.441 21.7344C176.441 20.9844 176.711 20.3698 177.253 19.8906C177.795 19.4115 178.498 19.1719 179.363 19.1719C180.227 19.1719 180.93 19.4115 181.472 19.8906C182.014 20.3698 182.284 20.9844 182.284 21.7344C182.284 22.4844 182.014 23.099 181.472 23.5781C180.93 24.0573 180.227 24.2969 179.363 24.2969C178.498 24.2969 177.795 24.0573 177.253 23.5781C176.711 23.099 176.441 22.4844 176.441 21.7344ZM192.056 29.7031V43H186.791V26.0938H191.728L192.056 29.7031ZM191.431 33.9688L190.197 34C190.197 32.7083 190.353 31.5573 190.666 30.5469C190.978 29.526 191.421 28.6615 191.994 27.9531C192.567 27.2448 193.249 26.7083 194.041 26.3438C194.843 25.9688 195.733 25.7812 196.713 25.7812C197.494 25.7812 198.207 25.8958 198.853 26.125C199.509 26.3542 200.072 26.724 200.541 27.2344C201.02 27.7448 201.384 28.4219 201.634 29.2656C201.895 30.099 202.025 31.1302 202.025 32.3594V43H196.728V32.3438C196.728 31.6667 196.634 31.151 196.447 30.7969C196.259 30.4323 195.989 30.1823 195.634 30.0469C195.28 29.9115 194.848 29.8438 194.338 29.8438C193.796 29.8438 193.338 29.9479 192.963 30.1562C192.588 30.3646 192.285 30.6562 192.056 31.0312C191.838 31.3958 191.676 31.8281 191.572 32.3281C191.478 32.8281 191.431 33.375 191.431 33.9688ZM211.859 18.9844V43H206.594V18.9844H211.859ZM222.672 26.0938L215.328 34.7031L211.484 38.5469L209.188 35.2031L212.391 31.0312L216.359 26.0938H222.672ZM217.031 43L212.516 35.2969L216.406 32.5312L223.062 43H217.031Z" fill="#0F9D58"/>
<path d="M5.15648 32.8853C5.20888 39.76 10.8443 45.311 17.72 45.2585L25.5156 45.1991C25.5295 45.199 25.5446 45.1988 25.5579 45.1982C32.3707 45.1273 37.9381 39.5703 37.8888 32.6356C37.8832 31.9021 37.8131 31.1706 37.6792 30.4494C37.5623 29.8197 37.0169 29.3608 36.3766 29.3657L33.9341 29.3844C32.9655 29.3918 32.1199 29.8127 31.5348 30.4531C31.3966 30.6045 31.2958 30.7862 31.2403 30.9835C31.1848 31.1809 31.1762 31.3885 31.2152 31.5897C31.27 31.8745 31.3227 32.2568 31.3263 32.6858C31.3512 35.9424 28.7353 38.6123 25.4649 38.6373L17.6699 38.6962C14.394 38.7212 11.7117 36.0599 11.7188 32.7765C11.7259 29.5251 14.4039 26.9086 17.6552 26.8838L19.1733 26.8723C19.678 26.8684 20.1316 26.5737 20.3506 26.1191C20.9976 24.7767 21.8367 23.5531 22.819 22.48C23.5896 21.638 22.9757 20.2804 21.8342 20.2891L17.5297 20.3219C10.6546 20.3737 5.10345 26.0102 5.15648 32.8853Z" fill="black"/>
<path d="M21.5062 32.7602C21.4569 25.8255 27.0243 20.2684 33.8371 20.1976C33.8504 20.1969 33.8655 20.1968 33.8794 20.1967L41.6751 20.1372C48.5508 20.0848 54.1861 25.6358 54.2385 32.5105C54.2916 39.3856 48.7404 45.0221 41.8653 45.0739L37.5608 45.1068C36.4193 45.1155 35.8053 43.7578 36.5761 42.9158C37.5583 41.8428 38.3974 40.6192 39.0444 39.2768C39.2634 38.8222 39.7171 38.5275 40.2217 38.5236L41.7398 38.512C44.991 38.4872 47.6691 35.8707 47.6762 32.6194C47.6834 29.336 45.001 26.6747 41.7251 26.6997L33.9301 26.7586C30.6598 26.7835 28.0439 29.4535 28.0687 32.7101C28.0724 33.139 28.1251 33.5214 28.1799 33.8062C28.2188 34.0074 28.2102 34.215 28.1547 34.4123C28.0992 34.6097 27.9984 34.7913 27.8603 34.9428C27.2752 35.5832 26.4296 36.0041 25.4609 36.0115L23.0185 36.0302C22.378 36.0351 21.8328 35.5761 21.7158 34.9465C21.582 34.2253 21.5118 33.4937 21.5062 32.7602Z" fill="#0F9D58"/>
</g>
<defs>
<clipPath id="clip0_1252_8">
<rect width="235" height="64" fill="white"/>
</clipPath>
</defs>
</svg>
