<svg width="134" height="64" viewBox="0 0 130 60" fill="none" xmlns="http://www.w3.org/2000/svg">
<path d="M66.2578 22.8828V29.8906C65.9688 30.2109 65.5234 30.5547 64.9219 30.9219C64.3281 31.2812 63.5781 31.5898 62.6719 31.8477C61.7656 32.1055 60.6992 32.2344 59.4727 32.2344C58.3398 32.2344 57.3125 32.0547 56.3906 31.6953C55.4688 31.3281 54.6758 30.793 54.0117 30.0898C53.3555 29.3789 52.8477 28.5117 52.4883 27.4883C52.1367 26.457 51.9609 25.2773 51.9609 23.9492V23C51.9609 21.6719 52.1406 20.4922 52.5 19.4609C52.8594 18.4297 53.3633 17.5625 54.0117 16.8594C54.668 16.1484 55.4375 15.6094 56.3203 15.2422C57.2109 14.875 58.1875 14.6914 59.25 14.6914C60.8203 14.6914 62.0977 14.9414 63.082 15.4414C64.0664 15.9336 64.8125 16.6172 65.3203 17.4922C65.8281 18.3594 66.1367 19.3633 66.2461 20.5039H62.2969C62.2188 19.9414 62.0703 19.4648 61.8516 19.0742C61.6406 18.6758 61.3359 18.375 60.9375 18.1719C60.5391 17.9609 60.0234 17.8555 59.3906 17.8555C58.8984 17.8555 58.4492 17.9609 58.043 18.1719C57.6445 18.3828 57.3047 18.7031 57.0234 19.1328C56.7422 19.5547 56.5234 20.0859 56.3672 20.7266C56.2188 21.3672 56.1445 22.1172 56.1445 22.9766V23.9492C56.1445 24.8008 56.2148 25.5469 56.3555 26.1875C56.5039 26.8281 56.7227 27.3633 57.0117 27.793C57.3086 28.2148 57.6836 28.5352 58.1367 28.7539C58.5977 28.9648 59.1406 29.0703 59.7656 29.0703C60.2031 29.0703 60.5781 29.0352 60.8906 28.9648C61.2031 28.8867 61.4609 28.793 61.6641 28.6836C61.875 28.5664 62.0352 28.457 62.1445 28.3555V25.707H59.2852V22.8828H66.2578ZM73.8445 19.3203V32H69.8836V19.3203H73.8445ZM69.6492 16.0508C69.6492 15.4883 69.8523 15.0273 70.2586 14.668C70.6648 14.3086 71.1922 14.1289 71.8406 14.1289C72.4891 14.1289 73.0164 14.3086 73.4227 14.668C73.8289 15.0273 74.032 15.4883 74.032 16.0508C74.032 16.6133 73.8289 17.0742 73.4227 17.4336C73.0164 17.793 72.4891 17.9727 71.8406 17.9727C71.1922 17.9727 70.6648 17.793 70.2586 17.4336C69.8523 17.0742 69.6492 16.6133 69.6492 16.0508ZM77.5172 14H81.4664V28.8828L81.0562 32H77.5172V14ZM89.2477 25.5195V25.7656C89.2477 26.7266 89.15 27.6016 88.9547 28.3906C88.7594 29.1797 88.4586 29.8633 88.0523 30.4414C87.6461 31.0117 87.1344 31.4531 86.5172 31.7656C85.9 32.0781 85.1695 32.2344 84.3258 32.2344C83.5602 32.2344 82.9039 32.0703 82.357 31.7422C81.8102 31.4062 81.3531 30.9453 80.9859 30.3594C80.6187 29.7656 80.3219 29.082 80.0953 28.3086C79.8687 27.5273 79.6891 26.6914 79.5562 25.8008V25.5078C79.6891 24.625 79.8687 23.7969 80.0953 23.0234C80.3219 22.2422 80.6187 21.5586 80.9859 20.9727C81.3531 20.3789 81.8062 19.918 82.3453 19.5898C82.8922 19.2539 83.5445 19.0859 84.3023 19.0859C85.1539 19.0859 85.8883 19.2461 86.5055 19.5664C87.1305 19.8867 87.6461 20.3359 88.0523 20.9141C88.4586 21.4922 88.7594 22.1719 88.9547 22.9531C89.15 23.7344 89.2477 24.5898 89.2477 25.5195ZM85.2984 25.7656V25.5195C85.2984 25.0586 85.2711 24.625 85.2164 24.2188C85.1617 23.8125 85.0641 23.4531 84.9234 23.1406C84.7828 22.8281 84.5836 22.582 84.3258 22.4023C84.068 22.2227 83.732 22.1328 83.318 22.1328C82.8961 22.1328 82.5406 22.2031 82.2516 22.3438C81.9703 22.4844 81.7437 22.6875 81.5719 22.9531C81.4078 23.2109 81.2906 23.5312 81.2203 23.9141C81.15 24.2891 81.1187 24.7148 81.1266 25.1914V26.1172C81.1109 26.7656 81.1695 27.3203 81.3023 27.7812C81.4352 28.2422 81.6656 28.5938 81.9937 28.8359C82.3219 29.0781 82.7711 29.1992 83.3414 29.1992C83.7633 29.1992 84.1031 29.1172 84.3609 28.9531C84.6266 28.7891 84.8258 28.5547 84.9586 28.25C85.0914 27.9453 85.1812 27.582 85.2281 27.1602C85.275 26.7383 85.2984 26.2734 85.2984 25.7656ZM96.3773 19.3203V32H92.4164V19.3203H96.3773ZM92.182 16.0508C92.182 15.4883 92.3852 15.0273 92.7914 14.668C93.1977 14.3086 93.725 14.1289 94.3734 14.1289C95.0219 14.1289 95.5492 14.3086 95.9555 14.668C96.3617 15.0273 96.5648 15.4883 96.5648 16.0508C96.5648 16.6133 96.3617 17.0742 95.9555 17.4336C95.5492 17.793 95.0219 17.9727 94.3734 17.9727C93.725 17.9727 93.1977 17.793 92.7914 17.4336C92.3852 17.0742 92.182 16.6133 92.182 16.0508ZM104.855 32H100.882V18.2891C100.882 17.3047 101.081 16.4766 101.48 15.8047C101.878 15.1328 102.441 14.625 103.167 14.2812C103.894 13.9297 104.753 13.7539 105.745 13.7539C106.089 13.7539 106.413 13.7773 106.718 13.8242C107.023 13.8711 107.32 13.9297 107.609 14L107.62 16.9062C107.48 16.8672 107.335 16.8398 107.187 16.8242C107.038 16.8086 106.855 16.8008 106.636 16.8008C106.253 16.8008 105.929 16.8594 105.663 16.9766C105.398 17.0859 105.195 17.2539 105.054 17.4805C104.921 17.6992 104.855 17.9688 104.855 18.2891V32ZM107.316 19.3203V22.0625H99.0539V19.3203H107.316ZM113.824 30.5117L117.105 19.3203H121.348L116.25 33.8867C116.141 34.207 115.996 34.5508 115.816 34.918C115.637 35.293 115.391 35.6484 115.078 35.9844C114.766 36.3203 114.363 36.5938 113.871 36.8047C113.387 37.0156 112.785 37.1211 112.066 37.1211C111.684 37.1211 111.402 37.1016 111.223 37.0625C111.051 37.0312 110.785 36.9727 110.426 36.8867V34.0625C110.527 34.0625 110.613 34.0625 110.684 34.0625C110.762 34.0625 110.848 34.0625 110.941 34.0625C111.363 34.0625 111.699 34.0195 111.949 33.9336C112.207 33.8477 112.402 33.7227 112.535 33.5586C112.676 33.3945 112.785 33.1953 112.863 32.9609L113.824 30.5117ZM112.992 19.3203L115.488 28.1914L115.922 32.375H113.273L108.762 19.3203H112.992Z" fill="black"/>
<path d="M76.4785 48.3633V51H69.291V48.3633H76.4785ZM70.5117 36.7812V51H67.084V36.7812H70.5117ZM82.2441 40.4336V51H78.9434V40.4336H82.2441ZM78.748 37.709C78.748 37.2402 78.9173 36.8561 79.2559 36.5566C79.5944 36.2572 80.0339 36.1074 80.5742 36.1074C81.1146 36.1074 81.554 36.2572 81.8926 36.5566C82.2311 36.8561 82.4004 37.2402 82.4004 37.709C82.4004 38.1777 82.2311 38.5618 81.8926 38.8613C81.554 39.1608 81.1146 39.3105 80.5742 39.3105C80.0339 39.3105 79.5944 39.1608 79.2559 38.8613C78.9173 38.5618 78.748 38.1777 78.748 37.709ZM88.5078 42.6895V51H85.2168V40.4336H88.3027L88.5078 42.6895ZM88.1172 45.3555L87.3457 45.375C87.3457 44.5677 87.4434 43.8483 87.6387 43.2168C87.834 42.5788 88.1107 42.0384 88.4688 41.5957C88.8268 41.153 89.2533 40.8177 89.748 40.5898C90.2493 40.3555 90.806 40.2383 91.418 40.2383C91.9062 40.2383 92.3522 40.3099 92.7559 40.4531C93.166 40.5964 93.5176 40.8275 93.8105 41.1465C94.11 41.4655 94.3379 41.8887 94.4941 42.416C94.6569 42.9368 94.7383 43.5814 94.7383 44.3496V51H91.4277V44.3398C91.4277 43.9167 91.3691 43.5944 91.252 43.373C91.1348 43.1452 90.9655 42.9889 90.7441 42.9043C90.5228 42.8197 90.2526 42.7773 89.9336 42.7773C89.5951 42.7773 89.3086 42.8424 89.0742 42.9727C88.8398 43.1029 88.651 43.2852 88.5078 43.5195C88.3711 43.7474 88.2702 44.0176 88.2051 44.3301C88.1465 44.6426 88.1172 44.9844 88.1172 45.3555ZM100.885 35.9902V51H97.5938V35.9902H100.885ZM107.643 40.4336L103.053 45.8145L100.65 48.2168L99.2148 46.127L101.217 43.5195L103.697 40.4336H107.643ZM104.117 51L101.295 46.1855L103.727 44.457L107.887 51H104.117Z" fill="#0F9D58"/>
<path d="M12.6831 16.0362C7.87137 20.9466 7.95104 28.8564 12.8621 33.6688L18.4303 39.125C18.4403 39.1347 18.451 39.1453 18.461 39.1542C23.3405 43.9092 31.2067 43.8966 36.0628 38.9459C36.5762 38.422 37.0425 37.854 37.4563 37.2483C37.8174 36.7195 37.7545 36.0095 37.2971 35.5613L35.5525 33.8519C34.8606 33.1739 33.9643 32.8759 33.0979 32.9171C32.8931 32.9271 32.6935 32.9847 32.515 33.0855C32.3365 33.1862 32.184 33.3273 32.0696 33.4975C31.9076 33.738 31.6753 34.0462 31.3754 34.3529C29.096 36.679 25.3585 36.7266 23.0226 34.4377L17.4552 28.9815C15.1153 26.6886 15.0909 22.9102 17.4118 20.5876C19.71 18.2878 23.454 18.3218 25.7762 20.5974L26.8606 21.66C27.221 22.0132 27.7505 22.1242 28.2264 21.9565C29.6319 21.4611 31.0897 21.1856 32.5428 21.1177C33.6831 21.0644 34.2054 19.669 33.3901 18.87L30.3155 15.8572C25.4053 11.0448 17.4946 11.1251 12.6831 16.0362Z" fill="black"/>
<path d="M24.3615 27.4793C29.2177 22.5286 37.0838 22.516 41.9634 27.271C41.9733 27.2799 41.9841 27.2905 41.994 27.3002L47.5622 32.7565C52.4733 37.5688 52.553 45.4786 47.7413 50.389C42.9297 55.3001 35.0191 55.3805 30.1088 50.5681L27.0342 47.5553C26.2188 46.7563 26.7412 45.3609 27.8814 45.3076C29.3346 45.2397 30.7924 44.9642 32.1979 44.4688C32.6738 44.3011 33.2032 44.4121 33.5637 44.7653L34.648 45.8279C36.9703 48.1034 40.7142 48.1375 43.0125 45.8377C45.3334 43.5152 45.3089 39.7367 42.9691 37.4439L37.4017 31.9876C35.0658 29.6987 31.3282 29.7463 29.0489 32.0725C28.749 32.3791 28.5167 32.6873 28.3546 32.9278C28.2403 33.098 28.0878 33.2391 27.9093 33.3398C27.7307 33.4406 27.5311 33.4982 27.3264 33.5082C26.4599 33.5495 25.5636 33.2514 24.8717 32.5735L23.1271 30.864C22.6697 30.4157 22.6068 29.7059 22.968 29.177C23.3818 28.5713 23.8481 28.0032 24.3615 27.4793Z" fill="#0F9D58"/>
</svg>
