<svg width="25" height="25" viewBox="0 0 25 25" fill="none" xmlns="http://www.w3.org/2000/svg">
<path d="M19.5312 0H5.46875C4.1748 0 3.125 1.0498 3.125 2.34375V22.6562C3.125 23.9502 4.1748 25 5.46875 25H19.5312C20.8252 25 21.875 23.9502 21.875 22.6562V2.34375C21.875 1.0498 20.8252 0 19.5312 0ZM12.5 6.25C14.2236 6.25 15.625 7.65137 15.625 9.375C15.625 11.0986 14.2236 12.5 12.5 12.5C10.7764 12.5 9.375 11.0986 9.375 9.375C9.375 7.65137 10.7764 6.25 12.5 6.25ZM17.9688 17.8125C17.9688 18.3301 17.4805 18.75 16.875 18.75H8.125C7.51953 18.75 7.03125 18.3301 7.03125 17.8125V16.875C7.03125 15.3223 8.50098 14.0625 10.3125 14.0625H10.5566C11.1572 14.3115 11.8115 14.4531 12.5 14.4531C13.1885 14.4531 13.8477 14.3115 14.4434 14.0625H14.6875C16.499 14.0625 17.9688 15.3223 17.9688 16.875V17.8125Z" fill="black"/>
</svg>
