<svg width="26" height="26" viewBox="0 0 26 26" fill="none" xmlns="http://www.w3.org/2000/svg">
<path d="M13 6.49609C9.4502 6.49609 6.56445 9.38184 6.55957 12.9316C6.55957 14.1475 6.90137 15.334 7.5459 16.3545L7.69727 16.5986L7.04785 18.9717L9.48438 18.332L9.71875 18.4736C10.7051 19.0596 11.8379 19.3721 12.9951 19.3721H13C16.5449 19.3721 19.5088 16.4863 19.5088 12.9365C19.5088 11.2178 18.7666 9.60156 17.5508 8.38574C16.3301 7.16504 14.7188 6.49609 13 6.49609ZM16.7842 15.6953C16.623 16.1494 15.8516 16.5596 15.4805 16.6133C14.8652 16.7061 14.3867 16.6572 13.1611 16.1299C11.2227 15.29 9.95313 13.3369 9.85547 13.21C9.75781 13.083 9.06445 12.1602 9.06445 11.208C9.06445 10.2559 9.5625 9.78711 9.74316 9.5918C9.91895 9.39648 10.1289 9.34766 10.2607 9.34766C10.3877 9.34766 10.5195 9.34766 10.6318 9.35254C10.749 9.35742 10.9102 9.30859 11.0664 9.68457C11.2275 10.0703 11.6133 11.0225 11.6621 11.1201C11.7109 11.2178 11.7451 11.3301 11.6768 11.457C11.3057 12.1992 10.9102 12.1699 11.1104 12.5117C11.8574 13.7959 12.6045 14.2402 13.7422 14.8115C13.9375 14.9092 14.0498 14.8945 14.1621 14.7627C14.2744 14.6357 14.6455 14.1963 14.7725 14.0059C14.8994 13.8105 15.0313 13.8447 15.207 13.9082C15.3828 13.9717 16.335 14.4404 16.5303 14.5381C16.7256 14.6357 16.8525 14.6846 16.9014 14.7627C16.9453 14.8555 16.9453 15.2461 16.7842 15.6953ZM21.5938 2.0625H4.40625C3.1123 2.0625 2.0625 3.1123 2.0625 4.40625V21.5938C2.0625 22.8877 3.1123 23.9375 4.40625 23.9375H21.5938C22.8877 23.9375 23.9375 22.8877 23.9375 21.5938V4.40625C23.9375 3.1123 22.8877 2.0625 21.5938 2.0625ZM12.9951 20.6758C11.6963 20.6758 10.4219 20.3486 9.29395 19.7334L5.1875 20.8125L6.28613 16.7988C5.60742 15.627 5.25098 14.2939 5.25098 12.9268C5.25586 8.65918 8.72754 5.1875 12.9951 5.1875C15.0654 5.1875 17.0088 5.99316 18.4736 7.45801C19.9336 8.92285 20.8125 10.8662 20.8125 12.9365C20.8125 17.2041 17.2627 20.6758 12.9951 20.6758Z" fill="black"/>
</svg>
